<svg viewBox="0 0 313.23084752100164 88.86649322509766" preserveAspectRatio="xMidYMid meet" class="css-8aabad"
  id="ghhegbdb" xmlns="http://www.w3.org/2000/svg">
  <defs id="SvgjsDefs1942">
      <style>
          .cls-1 {
              fill: #28C4BD;
              stroke: var(--escudo-cusco);
          }
      </style>
  </defs>
  <g id="SvgjsG1943" featurekey="2ou6gm-0" transform="matrix(1,0,0,1,-5.345945358276367,-5.501181602478027)"
    fill="#111">
    <path class="cls-1" xmlns="http://www.w3.org/2000/svg"
      d="M40.6627045,61.9300575c1.8087082-6.1217041,8.4575615-25.8676834-10.9911556-28.6606522  C9.81077,30.4172497,6.1586461,50.6605682,6.1586461,50.6605682s-4.6956091,12.6259842,8.4868641,27.9649963  c15.8452616,18.4373474,36.1737061,15.582489,36.1737061,15.582489  C32.593235,88.3646088,38.8540688,68.0517273,40.6627045,61.9300575z">
    </path>
    <path class="cls-1" xmlns="http://www.w3.org/2000/svg"
      d="M88.5430298,31.0102024C92.2213135,49.7932243,71.40905,54.113163,65.1745911,55.4835052  s-26.7374763,5.0767975-19.7972794,23.4585724c7.0870781,18.7711487,26.5794907,12.2000046,26.5794907,12.2000046  s13.3243866-1.9809723,20.3966293-20.9295044C100.8541794,47.4366493,88.5430298,31.0102024,88.5430298,31.0102024z">
    </path>
    <path class="cls-1" xmlns="http://www.w3.org/2000/svg"
      d="M46.0256195,36.0416946c3.3683815,5.4222832,13.6910629,23.5206833,28.7124939,10.8552742  c15.3395233-12.9336967,2.6522675-29.1251411,2.6522675-29.1251411s-6.305191-11.9042053-26.527317-12.2626295  c-24.3067703-0.4308395-35.6958084,16.647934-35.6958084,16.647934  C31.6532211,12.4337225,42.657383,30.6194439,46.0256195,36.0416946z">
    </path>
  </g>
  <g id="SvgjsG1944" featurekey="sloganFeature-0"
    transform="matrix(0.6189819981217736,0,0,0.6189819981217736,109.50481457859475,69.43466354914486)" fill="#111">
    <path
      d="M10.24 6 l0 1.56 l-3.88 0 l0 12.44 l-1.66 0 l0 -12.44 l-3.9 0 l0 -1.56 l9.44 0 z M30.031 18.44 l6.66 0 l0 1.56 l-7.06 0 l-1.26 0 l0 -14 l1.66 0 l6.48 0 l0 1.56 l-6.48 0 l0 4.64 l5.04 0 l0 1.52 l-5.04 0 l0 4.72 z M66.482 18.5 c-1.28 1.1 -2.9 1.7 -4.7 1.7 c-3.64 0 -7.16 -2.96 -7.16 -7.2 s3.52 -7.2 7.16 -7.2 c1.78 0 3.38 0.6 4.64 1.66 l-1.02 1.16 c-0.98 -0.78 -2.24 -1.24 -3.5 -1.24 c-2.86 0 -5.56 2.32 -5.56 5.62 s2.7 5.62 5.56 5.62 c1.28 0 2.56 -0.48 3.54 -1.28 z M93.293 6 l1.66 0 l0 14 l-1.66 0 l0 -6.12 l-7.12 0 l0 6.12 l-1.66 0 l0 -14 l1.66 0 l0 6.32 l7.12 0 l0 -6.32 z M123.244 6 l1.66 0 l0 14 l-1.28 0 l-8.48 -10.96 l0 10.96 l-1.66 0 l0 -14 l1.28 0 l8.48 10.98 l0 -10.98 z M150.29500000000002 5.800000000000001 c3.64 0 7.16 2.96 7.16 7.2 s-3.52 7.2 -7.16 7.2 c-3.66 0 -7.16 -2.96 -7.16 -7.2 s3.5 -7.2 7.16 -7.2 z M150.29500000000002 18.62 c2.74 0 5.44 -2.32 5.44 -5.62 s-2.7 -5.62 -5.44 -5.62 c-2.76 0 -5.44 2.32 -5.44 5.62 s2.68 5.62 5.44 5.62 z M177.34600000000003 18.44 l6.28 0 l0 1.56 l-7.94 0 l0 -14 l1.66 0 l0 12.44 z M208.61700000000002 5.800000000000001 c3.64 0 7.16 2.96 7.16 7.2 s-3.52 7.2 -7.16 7.2 c-3.66 0 -7.16 -2.96 -7.16 -7.2 s3.5 -7.2 7.16 -7.2 z M208.61700000000002 18.62 c2.74 0 5.44 -2.32 5.44 -5.62 s-2.7 -5.62 -5.44 -5.62 c-2.76 0 -5.44 2.32 -5.44 5.62 s2.68 5.62 5.44 5.62 z M247.26800000000003 12.96 c0.3 4.48 -2.76 7.24 -6.4 7.24 c-3.74 0 -7.16 -2.96 -7.16 -7.2 s3.5 -7.2 7.16 -7.2 c1.76 0 3.36 0.6 4.62 1.66 l-1.02 1.16 c-0.98 -0.78 -2.24 -1.24 -3.5 -1.24 c-2.86 0 -5.54 2.32 -5.54 5.62 s2.6 5.62 5.44 5.62 c2.48 0 4.46 -1.34 4.84 -4.22 l-4.08 0 l0 -1.44 l5.64 0 z M267.17900000000003 6 l0 14 l-1.66 0 l0 -14 l1.66 0 z M287.37 18.44 l6.66 0 l0 1.56 l-7.06 0 l-1.26 0 l0 -14 l1.66 0 l6.48 0 l0 1.56 l-6.48 0 l0 4.64 l5.04 0 l0 1.52 l-5.04 0 l0 4.72 z M316.561 5.76 c2.18 0 3.78 1.44 4.38 2.94 l-1.26 0.68 c-0.64 -1.28 -1.66 -2.12 -3.12 -2.12 c-1.54 0 -2.6 0.88 -2.6 2.1 c0 1.14 0.72 1.86 2.24 2.44 l1.02 0.38 c2.52 0.94 4.1 2.02 4.1 4.24 c0 2.4 -2.3 3.88 -4.68 3.88 s-4.34 -1.44 -4.88 -3.44 l1.34 -0.64 c0.48 1.48 1.74 2.56 3.54 2.56 c1.6 0 2.96 -0.92 2.96 -2.34 c0 -1.6 -1.12 -2.2 -2.78 -2.84 l-1.04 -0.4 c-2.12 -0.8 -3.48 -1.9 -3.48 -3.88 c0 -2.04 1.8 -3.56 4.26 -3.56 z">
    </path>
  </g>
  <g id="SvgjsG1945" featurekey="nameLeftFeature-0"
    transform="matrix(2.4824164065138685,0,0,2.4824164065138685,109.27215665354592,-7.133169166132683)" fill="#111">
    <path
      d="M10.801 5.888999999999999 l3.1152 0 l-5.2148 14.111 l-3.2227 0 l-5.1855 -14.111 l3.1055 0 l3.7012 10.693 z M22.285184375 20.19531 c-4.1504 0 -7.2168 -2.832 -7.2168 -7.2559 c0 -4.4336 3.0664 -7.2461 7.2168 -7.2461 c4.1406 0 7.207 2.8125 7.207 7.2461 c0 4.4238 -3.0664 7.2559 -7.207 7.2559 z M22.285184375 17.5098 c2.4316 0 4.2969 -1.709 4.2969 -4.5703 c0 -2.8516 -1.8652 -4.5508 -4.2969 -4.5508 s-4.2969 1.6992 -4.2969 4.5508 c0 2.8613 1.8652 4.5703 4.2969 4.5703 z M39.638628125 20 l-3.6719 -6.2109 l-0.84961 0 l0 6.2109 l-2.9297 0 l0 -14.111 l5.1172 0 c3.1934 0 4.541 1.8848 4.541 4.2188 c0 1.8945 -1.0742 3.125 -2.9883 3.5352 l4.248 6.3574 l-3.4668 0 z M35.117228125 8.32 l0 3.3691 l1.7285 0 c1.5625 0 2.1973 -0.66406 2.1973 -1.6797 c0 -1.0059 -0.63477 -1.6895 -2.1973 -1.6895 l-1.7285 0 z">
    </path>
  </g>
  <g id="SvgjsG1946" featurekey="nameRightFeature-0"
    transform="matrix(2.5850925220185355,0,0,2.5850925220185355,219.84946060495247,-8.701851673038878)" fill="#111">
    <path
      d="M11.426 6.074 l2.334 0 l0 13.926 l-2.6172 0 l-6.8359 -10.625 l0 10.625 l-2.3145 0 l0 -13.926 l2.5879 0 l6.8457 10.557 l0 -10.557 z M17.744153125 20 l0 -13.926 l2.334 0 l0 13.926 l-2.334 0 z M22.4902325 20 l5.4297 -7.2656 l-5.2344 -6.6602 l2.8418 0 l3.7793 4.9805 l3.7695 -4.9805 l2.8418 0 l-5.2246 6.6602 l5.4297 7.2656 l-2.9688 0 l-3.8477 -5.4102 l-3.8477 5.4102 l-2.9688 0 z">
    </path>
  </g>
</svg>
